<svg width="685" height="163" viewBox="0 0 685 163" fill="none" xmlns="http://www.w3.org/2000/svg">
<mask id="mask0_210_2" style="mask-type:alpha" maskUnits="userSpaceOnUse" x="0" y="0" width="163" height="163">
<rect width="163" height="163" fill="#D9D9D9"/>
</mask>
<g mask="url(#mask0_210_2)">
<path d="M149.327 91.6448L111.364 129.608C111.364 129.594 111.35 129.581 111.337 129.567C111.009 129.949 110.654 130.318 110.298 130.673C94.7116 146.26 69.4256 146.26 53.825 130.673L42.2407 119.089C43.4019 119.062 44.5494 118.994 45.6696 118.884C59.262 117.737 72.5266 111.972 82.9224 101.576L94.8345 89.664L110.298 74.2C110.954 74.8557 111.61 75.4841 112.293 76.0989V76.1125C122.798 85.7023 135.871 90.8798 149.163 91.6448H149.327V91.6448Z" fill="#10B981"/>
<path d="M149.327 91.6448L111.364 129.608C111.364 129.594 111.35 129.581 111.337 129.567C111.009 129.949 110.654 130.318 110.298 130.673C94.7116 146.26 69.4256 146.26 53.825 130.673L42.2407 119.089C43.4019 119.062 44.5494 118.994 45.6696 118.884C59.262 117.737 72.5266 111.972 82.9224 101.576L94.8345 89.664L110.298 74.2C110.954 74.8557 111.61 75.4841 112.293 76.0989V76.1125C122.798 85.7023 135.871 90.8798 149.163 91.6448H149.327V91.6448Z" fill="url(#paint0_linear_210_2)" fill-opacity="0.2"/>
<path d="M149.327 91.6448L111.364 129.608C111.364 129.594 111.35 129.581 111.337 129.567C111.009 129.949 110.654 130.318 110.298 130.673C94.7116 146.26 69.4256 146.26 53.825 130.673L42.2407 119.089C43.4019 119.062 44.5494 118.994 45.6696 118.884C59.262 117.737 72.5266 111.972 82.9224 101.576L94.8345 89.664L110.298 74.2C110.954 74.8557 111.61 75.4841 112.293 76.0989V76.1125C122.798 85.7023 135.871 90.8798 149.163 91.6448H149.327V91.6448Z" stroke="white"/>
<path d="M82.0617 45.9633L53.825 74.2C43.074 84.9647 29.2493 90.7705 15.1651 91.6311C15.0422 91.6448 14.9329 91.6448 14.8099 91.6448L11.6953 88.5438C-3.90526 72.9432 -3.8916 47.6572 11.6953 32.0703C27.2822 16.4834 52.5682 16.4697 68.1688 32.0703L71.2698 35.1849L82.0617 45.9633Z" fill="#10B981"/>
<path d="M82.0617 45.9633L53.825 74.2C43.074 84.9647 29.2493 90.7705 15.1651 91.6311C15.0422 91.6448 14.9329 91.6448 14.8099 91.6448L11.6953 88.5438C-3.90526 72.9432 -3.8916 47.6572 11.6953 32.0703C27.2822 16.4834 52.5682 16.4697 68.1688 32.0703L71.2698 35.1849L82.0617 45.9633Z" fill="url(#paint1_linear_210_2)" fill-opacity="0.2"/>
<path d="M82.0617 45.9633L53.825 74.2C43.074 84.9647 29.2493 90.7705 15.1651 91.6311C15.0422 91.6448 14.9329 91.6448 14.8099 91.6448L11.6953 88.5438C-3.90526 72.9432 -3.8916 47.6572 11.6953 32.0703C27.2822 16.4834 52.5682 16.4697 68.1688 32.0703L71.2698 35.1849L82.0617 45.9633Z" stroke="white"/>
<path d="M159.108 44.2282C145.939 45.608 133.153 51.3455 123.071 61.4407L110.299 74.1999L94.8346 89.6638L82.9225 101.576C72.5266 111.972 59.2621 117.737 45.6697 118.884C44.5495 118.993 43.402 119.062 42.2408 119.089L25.5884 102.437L14.8101 91.6446C14.933 91.6446 15.0423 91.6446 15.1652 91.631C29.2495 90.7703 43.0741 84.9645 53.8251 74.1999L82.0618 45.9631L92.8538 35.1848L94.8346 33.204C110.435 17.6035 135.708 17.6035 151.308 33.204C154.6 36.4963 157.21 40.2393 159.108 44.2282Z" fill="#10B981"/>
<path d="M159.108 44.2282C145.939 45.608 133.153 51.3455 123.071 61.4407L110.299 74.1999L94.8346 89.6638L82.9225 101.576C72.5266 111.972 59.2621 117.737 45.6697 118.884C44.5495 118.993 43.402 119.062 42.2408 119.089L25.5884 102.437L14.8101 91.6446C14.933 91.6446 15.0423 91.6446 15.1652 91.631C29.2495 90.7703 43.0741 84.9645 53.8251 74.1999L82.0618 45.9631L92.8538 35.1848L94.8346 33.204C110.435 17.6035 135.708 17.6035 151.308 33.204C154.6 36.4963 157.21 40.2393 159.108 44.2282Z" fill="url(#paint2_linear_210_2)" fill-opacity="0.5"/>
<path d="M159.108 44.2282C145.939 45.608 133.153 51.3455 123.071 61.4407L110.299 74.1999L94.8346 89.6638L82.9225 101.576C72.5266 111.972 59.2621 117.737 45.6697 118.884C44.5495 118.993 43.402 119.062 42.2408 119.089L25.5884 102.437L14.8101 91.6446C14.933 91.6446 15.0423 91.6446 15.1652 91.631C29.2495 90.7703 43.0741 84.9645 53.8251 74.1999L82.0618 45.9631L92.8538 35.1848L94.8346 33.204C110.435 17.6035 135.708 17.6035 151.308 33.204C154.6 36.4963 157.21 40.2393 159.108 44.2282Z" fill="url(#paint3_linear_210_2)" fill-opacity="0.2"/>
<path d="M159.108 44.2282C145.939 45.608 133.153 51.3455 123.071 61.4407L110.299 74.1999L94.8346 89.6638L82.9225 101.576C72.5266 111.972 59.2621 117.737 45.6697 118.884C44.5495 118.993 43.402 119.062 42.2408 119.089L25.5884 102.437L14.8101 91.6446C14.933 91.6446 15.0423 91.6446 15.1652 91.631C29.2495 90.7703 43.0741 84.9645 53.8251 74.1999L82.0618 45.9631L92.8538 35.1848L94.8346 33.204C110.435 17.6035 135.708 17.6035 151.308 33.204C154.6 36.4963 157.21 40.2393 159.108 44.2282Z" stroke="white"/>
<path d="M151.308 89.664L149.327 91.6448H149.163C135.871 90.8798 122.798 85.7024 112.293 76.1125V76.0989C111.61 75.4842 110.954 74.8558 110.299 74.2L123.071 61.4409C133.153 51.3456 145.939 45.6081 159.108 44.2284C166.198 59.0639 163.603 77.3693 151.308 89.664Z" fill="#10B981"/>
<path d="M151.308 89.664L149.327 91.6448H149.163C135.871 90.8798 122.798 85.7024 112.293 76.1125V76.0989C111.61 75.4842 110.954 74.8558 110.299 74.2L123.071 61.4409C133.153 51.3456 145.939 45.6081 159.108 44.2284C166.198 59.0639 163.603 77.3693 151.308 89.664Z" fill="black" fill-opacity="0.2"/>
<path d="M151.308 89.664L149.327 91.6448H149.163C135.871 90.8798 122.798 85.7024 112.293 76.1125V76.0989C111.61 75.4842 110.954 74.8558 110.299 74.2L123.071 61.4409C133.153 51.3456 145.939 45.6081 159.108 44.2284C166.198 59.0639 163.603 77.3693 151.308 89.664Z" stroke="white"/>
</g>
<path d="M676.338 107.422C675.776 107.422 675.495 107.106 675.495 106.473V57.0683C675.495 56.4362 675.776 56.1202 676.338 56.1202H682.237C682.799 56.1202 683.08 56.4362 683.08 57.0683V106.473C683.08 107.106 682.799 107.422 682.237 107.422H676.338ZM679.393 47.0609C677.707 47.0609 676.443 46.6044 675.601 45.6914C674.758 44.7785 674.336 43.5495 674.336 42.0045V41.0564C674.336 39.5114 674.758 38.2824 675.601 37.3694C676.443 36.4565 677.707 36 679.393 36C681.078 36 682.307 36.4565 683.08 37.3694C683.923 38.2824 684.344 39.5114 684.344 41.0564V42.0045C684.344 43.5495 683.923 44.7785 683.08 45.6914C682.307 46.6044 681.078 47.0609 679.393 47.0609Z" fill="#0D0D0D"/>
<path d="M654.457 127.331C653.896 127.612 653.474 127.507 653.193 127.015L649.822 122.485C649.331 121.924 649.366 121.467 649.928 121.116C651.403 119.852 652.596 118.307 653.509 116.481C654.493 114.725 655.195 112.583 655.616 110.055C656.038 107.527 656.248 104.577 656.248 101.206V57.0683C656.248 56.4362 656.529 56.1202 657.091 56.1202H662.99C663.552 56.1202 663.833 56.4362 663.833 57.0683V101.733C663.833 105.947 663.517 109.669 662.885 112.899C662.323 116.2 661.34 119.009 659.935 121.327C658.601 123.714 656.775 125.716 654.457 127.331ZM660.146 47.0609C658.46 47.0609 657.196 46.6044 656.354 45.6914C655.511 44.7785 655.089 43.5495 655.089 42.0045V41.0564C655.089 39.5114 655.511 38.2824 656.354 37.3694C657.196 36.4565 658.46 36 660.146 36C661.831 36 663.06 36.4565 663.833 37.3694C664.676 38.2824 665.097 39.5114 665.097 41.0564V42.0045C665.097 43.5495 664.676 44.7785 663.833 45.6914C663.06 46.6044 661.831 47.0609 660.146 47.0609Z" fill="#0D0D0D"/>
<path d="M637.946 107.421C637.385 107.421 637.104 107.105 637.104 106.473V70.3412C637.104 67.5321 636.577 65.4955 635.524 64.2314C634.54 62.9673 632.995 62.3352 630.889 62.3352C628.922 62.3352 626.956 63.0024 624.989 64.3367C623.023 65.671 620.706 67.7779 618.037 70.6572L617.721 64.126C620.389 61.1062 622.953 58.8941 625.411 57.4895C627.869 56.0147 630.502 55.2773 633.311 55.2773C637.033 55.2773 639.843 56.5063 641.739 58.9643C643.705 61.352 644.688 65.0039 644.688 69.9198V106.473C644.688 107.105 644.407 107.421 643.846 107.421H637.946ZM612.454 107.421C611.892 107.421 611.611 107.105 611.611 106.473V68.8664C611.611 66.268 611.576 63.9856 611.506 62.0192C611.436 60.0528 611.33 58.5078 611.19 57.3842C611.119 56.5414 611.365 56.1201 611.927 56.1201H617.194C617.756 56.1201 618.072 56.4361 618.142 57.0682C618.353 58.3322 618.528 60.0177 618.669 62.1245C618.809 64.1611 618.915 65.7764 618.985 66.9703L619.196 68.3397V106.473C619.196 107.105 618.915 107.421 618.353 107.421H612.454Z" fill="#0D0D0D"/>
<path d="M594.044 107.421C593.622 107.421 593.306 107.035 593.096 106.263C593.026 105.279 592.885 103.84 592.674 101.944C592.534 99.9773 592.464 98.2918 592.464 96.8872L592.042 95.0964V70.7625C592.042 67.6023 591.551 65.4252 590.568 64.2314C589.655 62.9673 587.864 62.3352 585.195 62.3352C580.49 62.3352 578.243 64.5825 578.453 69.0771C578.453 69.7794 578.172 70.1305 577.611 70.1305H572.133C571.431 70.1305 571.044 69.6038 570.974 68.5504C570.623 64.4069 571.711 61.1765 574.24 58.859C576.768 56.4712 580.49 55.2773 585.406 55.2773C590.392 55.2773 594.009 56.4712 596.256 58.859C598.503 61.1765 599.627 65.0741 599.627 70.5519V94.7804C599.627 97.5193 599.662 99.8368 599.732 101.733C599.873 103.629 599.978 105.139 600.048 106.263C600.189 107.035 599.943 107.421 599.311 107.421H594.044ZM579.401 108.264C576.171 108.264 573.678 107.07 571.922 104.683C570.166 102.295 569.289 98.8536 569.289 94.359C569.289 89.3729 570.553 85.5104 573.081 82.7715C575.609 79.9624 579.858 78.2418 585.827 77.6097L593.201 76.8724V82.9822L586.249 83.7195C582.878 84.0707 580.455 85.0539 578.98 86.6691C577.575 88.2141 576.873 90.6019 576.873 93.8323C576.873 96.2201 577.259 98.046 578.032 99.3101C578.804 100.574 579.963 101.206 581.508 101.206C583.194 101.206 584.914 100.609 586.67 99.4154C588.426 98.2216 590.673 96.0094 593.412 92.7789L593.622 99.5208C590.954 102.611 588.531 104.858 586.354 106.263C584.247 107.597 581.93 108.264 579.401 108.264Z" fill="#0D0D0D"/>
<path d="M546.316 121.959C545.333 122.31 544.736 122.134 544.525 121.432L542.945 116.059C542.875 115.638 542.91 115.287 543.05 115.006C543.191 114.795 543.507 114.655 543.998 114.585C545.473 114.163 546.702 113.356 547.685 112.162C548.669 111.038 549.406 109.458 549.898 107.421C550.389 105.315 550.635 102.681 550.635 99.5208V39.3708C550.635 38.7388 550.916 38.4227 551.478 38.4227H557.482C557.974 38.4227 558.22 38.7388 558.22 39.3708V99.3101C558.22 104.086 557.763 108.018 556.85 111.108C555.937 114.198 554.603 116.586 552.847 118.272C551.091 120.027 548.914 121.256 546.316 121.959Z" fill="#0D0D0D"/>
<path d="M505.381 127.752C499.131 127.752 494.601 126.664 491.792 124.487C488.983 122.31 487.578 119.079 487.578 114.795C487.578 111.776 488.245 109.212 489.58 107.105C490.984 104.999 492.986 103.278 495.584 101.944L501.062 104.472C499.236 105.174 497.796 106.333 496.743 107.948C495.76 109.563 495.268 111.424 495.268 113.531C495.268 116.2 496.041 118.096 497.586 119.22C499.201 120.343 501.905 120.905 505.697 120.905C509.77 120.905 512.579 120.273 514.124 119.009C515.739 117.745 516.547 115.708 516.547 112.899C516.547 110.511 516.055 108.756 515.072 107.632C514.159 106.508 512.579 105.876 510.332 105.736L498.639 104.999C496.111 104.788 494.074 103.91 492.529 102.365C491.054 100.75 490.317 98.6078 490.317 95.9392C490.317 93.3408 491.019 91.3042 492.424 89.8294C493.899 88.2844 495.479 86.9501 497.164 85.8264L501.905 88.8813C500.43 89.3729 499.271 90.1103 498.428 91.0935C497.656 92.0064 497.27 93.0599 497.27 94.2537C497.27 95.3774 497.621 96.2903 498.323 96.9926C499.025 97.6949 500.184 98.1163 501.799 98.2567L512.755 99.0994C516.617 99.3804 519.461 100.68 521.287 102.997C523.113 105.315 524.026 108.756 524.026 113.321C524.026 118.307 522.551 121.959 519.602 124.276C516.652 126.594 511.912 127.752 505.381 127.752ZM506.118 90.5668C500.992 90.5668 497.199 89.1622 494.741 86.3531C492.354 83.4738 491.16 78.9792 491.16 72.8694C491.16 66.7596 492.354 62.3001 494.741 59.491C497.129 56.6819 500.956 55.2774 506.224 55.2774C511.42 55.2774 515.178 56.6819 517.495 59.491C519.883 62.3001 521.077 66.7947 521.077 72.9748C521.077 79.0846 519.883 83.544 517.495 86.3531C515.107 89.1622 511.315 90.5668 506.118 90.5668ZM506.118 83.6142C508.998 83.6142 510.964 82.8417 512.017 81.2967C513.141 79.6815 513.703 76.9075 513.703 72.9748C513.703 68.9718 513.141 66.1627 512.017 64.5474C510.964 62.9322 508.998 62.1246 506.118 62.1246C503.309 62.1246 501.343 62.9322 500.219 64.5474C499.166 66.1627 498.639 68.9718 498.639 72.9748C498.639 76.9075 499.166 79.6815 500.219 81.2967C501.343 82.8417 503.309 83.6142 506.118 83.6142ZM516.126 60.4391L510.121 57.5949C510.332 54.3644 510.578 51.6255 510.859 49.3783C511.21 47.0607 511.526 45.1295 511.807 43.5845C511.947 42.812 512.228 42.4257 512.649 42.4257H517.916C518.549 42.4257 518.794 42.7417 518.654 43.3738C518.162 45.5509 517.706 47.9035 517.284 50.4317C516.863 52.9599 516.477 56.2957 516.126 60.4391Z" fill="#0D0D0D"/>
<path d="M471.91 107.421C471.348 107.421 471.067 107.105 471.067 106.473V70.3412C471.067 67.5321 470.541 65.4955 469.487 64.2314C468.504 62.9673 466.959 62.3352 464.852 62.3352C462.886 62.3352 460.919 63.0024 458.953 64.3367C456.987 65.671 454.669 67.7779 452.001 70.6572L451.684 64.126C454.353 61.1062 456.916 58.8941 459.374 57.4895C461.832 56.0147 464.466 55.2773 467.275 55.2773C470.997 55.2773 473.806 56.5063 475.702 58.9643C477.669 61.352 478.652 65.0039 478.652 69.9198V106.473C478.652 107.105 478.371 107.421 477.809 107.421H471.91ZM446.417 107.421C445.856 107.421 445.575 107.105 445.575 106.473V68.8664C445.575 66.268 445.54 63.9856 445.469 62.0192C445.399 60.0528 445.294 58.5078 445.153 57.3842C445.083 56.5414 445.329 56.1201 445.891 56.1201H451.158C451.72 56.1201 452.036 56.4361 452.106 57.0682C452.317 58.3322 452.492 60.0177 452.633 62.1245C452.773 64.1611 452.878 65.7764 452.949 66.9703L453.159 68.3397V106.473C453.159 107.105 452.878 107.421 452.317 107.421H446.417Z" fill="#0D0D0D"/>
<path d="M428.008 107.421C427.586 107.421 427.27 107.035 427.06 106.263C426.989 105.279 426.849 103.84 426.638 101.944C426.498 99.9773 426.428 98.2918 426.428 96.8872L426.006 95.0964V70.7625C426.006 67.6023 425.515 65.4252 424.531 64.2314C423.618 62.9673 421.828 62.3352 419.159 62.3352C414.454 62.3352 412.206 64.5825 412.417 69.0771C412.417 69.7794 412.136 70.1305 411.574 70.1305H406.097C405.394 70.1305 405.008 69.6038 404.938 68.5504C404.587 64.4069 405.675 61.1765 408.203 58.859C410.732 56.4712 414.454 55.2773 419.37 55.2773C424.356 55.2773 427.973 56.4712 430.22 58.859C432.467 61.1765 433.591 65.0741 433.591 70.5519V94.7804C433.591 97.5193 433.626 99.8368 433.696 101.733C433.837 103.629 433.942 105.139 434.012 106.263C434.153 107.035 433.907 107.421 433.275 107.421H428.008ZM413.365 108.264C410.135 108.264 407.642 107.07 405.886 104.683C404.13 102.295 403.252 98.8536 403.252 94.359C403.252 89.3729 404.517 85.5104 407.045 82.7715C409.573 79.9624 413.822 78.2418 419.791 77.6097L427.165 76.8724V82.9822L420.212 83.7195C416.841 84.0707 414.419 85.0539 412.944 86.6691C411.539 88.2141 410.837 90.6019 410.837 93.8323C410.837 96.2201 411.223 98.046 411.996 99.3101C412.768 100.574 413.927 101.206 415.472 101.206C417.158 101.206 418.878 100.609 420.634 99.4154C422.389 98.2216 424.637 96.0094 427.376 92.7789L427.586 99.5208C424.918 102.611 422.495 104.858 420.318 106.263C418.211 107.597 415.893 108.264 413.365 108.264Z" fill="#0D0D0D"/>
<path d="M380.554 108.264C375.498 108.264 371.741 106.93 369.283 104.261C366.895 101.522 365.807 97.5193 366.017 92.2522C366.017 91.6202 366.298 91.3041 366.86 91.3041H372.759C373.251 91.3041 373.497 91.5851 373.497 92.1469C373.497 95.4476 374.023 97.8002 375.077 99.2047C376.13 100.609 378.026 101.312 380.765 101.312C383.223 101.312 385.049 100.75 386.243 99.6261C387.507 98.4322 388.139 96.6766 388.139 94.359C388.139 92.6736 387.753 91.2339 386.98 90.04C386.208 88.8462 384.979 87.7225 383.293 86.6691L374.339 81.402C371.53 79.7868 369.494 77.9258 368.229 75.8189C367.036 73.6419 366.439 71.0083 366.439 67.9183C366.439 63.7749 367.633 60.6498 370.02 58.5429C372.478 56.3659 375.955 55.2773 380.449 55.2773C385.225 55.2773 388.841 56.5063 391.299 58.9643C393.827 61.352 394.951 64.6879 394.67 68.9717C394.6 69.6038 394.319 69.9198 393.827 69.9198H387.928C387.718 69.9198 387.507 69.8496 387.296 69.7091C387.156 69.5687 387.121 69.2175 387.191 68.6557C387.261 66.6191 386.734 65.039 385.611 63.9153C384.487 62.7917 382.767 62.2299 380.449 62.2299C378.272 62.2299 376.622 62.7215 375.498 63.7047C374.445 64.6879 373.918 66.0924 373.918 67.9183C373.918 69.6038 374.269 70.9732 374.971 72.0266C375.744 73.0801 377.043 74.1686 378.869 75.2922L387.612 80.6646C390.492 82.4203 392.528 84.3165 393.722 86.3531C394.916 88.3195 395.513 90.8828 395.513 94.043C395.513 98.678 394.249 102.225 391.721 104.683C389.192 107.07 385.47 108.264 380.554 108.264Z" fill="#0D0D0D"/>
<path d="M350.03 107.421C349.609 107.421 349.293 107.035 349.082 106.263C349.012 105.279 348.871 103.84 348.661 101.944C348.52 99.9773 348.45 98.2918 348.45 96.8872L348.029 95.0964V70.7625C348.029 67.6023 347.537 65.4252 346.554 64.2314C345.641 62.9673 343.85 62.3352 341.181 62.3352C336.476 62.3352 334.229 64.5825 334.44 69.0771C334.44 69.7794 334.159 70.1305 333.597 70.1305H328.119C327.417 70.1305 327.031 69.6038 326.96 68.5504C326.609 64.4069 327.698 61.1765 330.226 58.859C332.754 56.4712 336.476 55.2773 341.392 55.2773C346.378 55.2773 349.995 56.4712 352.242 58.859C354.49 61.1765 355.613 65.0741 355.613 70.5519V94.7804C355.613 97.5193 355.648 99.8368 355.719 101.733C355.859 103.629 355.964 105.139 356.035 106.263C356.175 107.035 355.929 107.421 355.297 107.421H350.03ZM335.388 108.264C332.157 108.264 329.664 107.07 327.908 104.683C326.153 102.295 325.275 98.8536 325.275 94.359C325.275 89.3729 326.539 85.5104 329.067 82.7715C331.595 79.9624 335.844 78.2418 341.814 77.6097L349.187 76.8724V82.9822L342.235 83.7195C338.864 84.0707 336.441 85.0539 334.966 86.6691C333.562 88.2141 332.859 90.6019 332.859 93.8323C332.859 96.2201 333.246 98.046 334.018 99.3101C334.791 100.574 335.95 101.206 337.495 101.206C339.18 101.206 340.901 100.609 342.656 99.4154C344.412 98.2216 346.659 96.0094 349.398 92.7789L349.609 99.5208C346.94 102.611 344.517 104.858 342.34 106.263C340.233 107.597 337.916 108.264 335.388 108.264Z" fill="#0D0D0D"/>
<path d="M302.196 108.264C300.089 108.264 297.912 107.983 295.665 107.421C293.488 106.789 291.627 105.982 290.082 104.999L289.976 98.1513C291.451 99.0643 293.101 99.8017 294.927 100.363C296.753 100.925 298.544 101.206 300.3 101.206C302.968 101.206 304.97 100.258 306.304 98.362C307.639 96.3956 308.306 93.3407 308.306 89.1973V71.0786C308.306 67.9886 307.814 65.7764 306.831 64.4421C305.918 63.0375 304.443 62.3352 302.407 62.3352C300.44 62.3352 298.439 63.0375 296.402 64.4421C294.366 65.8466 292.083 67.9534 289.555 70.7625L289.239 63.81C291.837 60.9307 294.33 58.7887 296.718 57.3842C299.106 55.9796 301.669 55.2773 304.408 55.2773C308.271 55.2773 311.15 56.5063 313.046 58.9643C314.942 61.4223 315.89 65.2497 315.89 70.4465V89.724C315.89 95.8338 314.696 100.469 312.309 103.629C309.991 106.719 306.62 108.264 302.196 108.264ZM284.393 126.91C283.831 126.91 283.55 126.594 283.55 125.961V68.0237C283.55 65.7764 283.515 63.7749 283.445 62.0192C283.375 60.1933 283.27 58.6132 283.129 57.2788C282.989 56.5063 283.234 56.1201 283.867 56.1201H289.134C289.695 56.1201 290.011 56.4361 290.082 57.0682C290.222 57.8407 290.363 58.9292 290.503 60.3337C290.643 61.7383 290.714 62.9673 290.714 64.0207L291.135 67.6023V125.961C291.135 126.594 290.854 126.91 290.292 126.91H284.393Z" fill="#0D0D0D"/>
<path d="M256.758 108.264C251.28 108.264 247.137 106.754 244.327 103.734C241.518 100.644 240.114 96.0094 240.114 89.8294V73.5014C240.114 67.3214 241.483 62.7566 244.222 59.807C247.031 56.7872 251.104 55.2773 256.442 55.2773C261.779 55.2773 265.817 56.7872 268.556 59.807C271.295 62.8268 272.664 67.2863 272.664 73.1854V82.6661C272.664 83.2982 272.418 83.6142 271.927 83.6142H247.698V88.8813C247.698 93.2354 248.436 96.3956 249.911 98.362C251.385 100.258 253.738 101.206 256.968 101.206C259.567 101.206 261.498 100.644 262.762 99.5208C264.097 98.3269 264.693 96.6414 264.553 94.4644C264.553 93.6919 264.834 93.3056 265.396 93.3056H271.19C271.611 93.3056 271.892 93.6217 272.032 94.2537C272.173 98.678 270.909 102.119 268.24 104.577C265.571 107.035 261.744 108.264 256.758 108.264ZM247.698 76.767H265.08V73.6068C265.08 69.674 264.377 66.8298 262.973 65.0741C261.639 63.2482 259.497 62.3352 256.547 62.3352C253.527 62.3352 251.28 63.2482 249.805 65.0741C248.401 66.9 247.698 69.7442 247.698 73.6068V76.767Z" fill="#0D0D0D"/>
<path d="M212.226 108.264C205.414 108.264 200.568 106.438 197.689 102.786C194.81 99.1346 193.616 94.4645 194.108 88.776C194.178 87.8631 194.494 87.4066 195.056 87.4066H200.744C201.376 87.4066 201.692 87.8631 201.692 88.776C201.411 93.0599 202.184 96.2202 204.01 98.2568C205.906 100.293 208.785 101.312 212.648 101.312C216.37 101.312 219.109 100.469 220.864 98.7835C222.69 97.0278 223.603 94.3591 223.603 90.7775C223.603 88.8112 223.357 87.1257 222.866 85.7211C222.444 84.2464 221.707 82.9471 220.654 81.8235C219.6 80.6296 218.161 79.506 216.335 78.4526L205.168 71.9214C201.517 69.6741 198.848 67.181 197.162 64.4422C195.547 61.6331 194.775 58.1919 194.845 54.1187C194.915 48.7814 196.425 44.7082 199.375 41.8991C202.394 39.0197 206.678 37.5801 212.226 37.5801C218.336 37.5801 222.971 39.2655 226.131 42.6365C229.292 45.9372 230.591 50.5722 230.029 56.5415C229.889 57.5247 229.608 58.0163 229.186 58.0163H223.287C222.725 58.0163 222.48 57.5247 222.55 56.5415C222.901 52.679 222.163 49.7295 220.338 47.6929C218.512 45.6563 215.808 44.638 212.226 44.638C209.136 44.638 206.749 45.4105 205.063 46.9555C203.378 48.4303 202.5 50.7127 202.43 53.8027C202.359 56.6118 202.886 58.9293 204.01 60.7552C205.204 62.5109 207.17 64.1964 209.909 65.8116L220.759 72.2374C223.287 73.7122 225.289 75.2923 226.763 76.9778C228.308 78.6633 229.432 80.5945 230.134 82.7716C230.837 84.9486 231.188 87.5471 231.188 90.5668C231.188 96.1148 229.643 100.469 226.553 103.629C223.533 106.719 218.757 108.264 212.226 108.264Z" fill="#0D0D0D"/>
<defs>
<linearGradient id="paint0_linear_210_2" x1="74.1424" y1="100.743" x2="117.156" y2="125.646" gradientUnits="userSpaceOnUse">
<stop/>
<stop offset="1" stop-opacity="0"/>
</linearGradient>
<linearGradient id="paint1_linear_210_2" x1="54.8993" y1="73.0104" x2="16.4132" y2="29.9965" gradientUnits="userSpaceOnUse">
<stop/>
<stop offset="0.333333" stop-opacity="0"/>
</linearGradient>
<linearGradient id="paint2_linear_210_2" x1="108.101" y1="53.2013" x2="144.323" y2="24.9026" gradientUnits="userSpaceOnUse">
<stop stop-color="#10B981"/>
<stop offset="1" stop-color="#F5F5F5"/>
</linearGradient>
<linearGradient id="paint3_linear_210_2" x1="67.9168" y1="85.4617" x2="35.0904" y2="106.969" gradientUnits="userSpaceOnUse">
<stop stop-color="white" stop-opacity="0"/>
<stop offset="0.645833"/>
</linearGradient>
</defs>
</svg>
